<?xml version="1.0" encoding="utf-8"?>
<!-- Generator: Adobe Illustrator 15.1.0, SVG Export Plug-In . SVG Version: 6.00 Build 0)  -->
<!DOCTYPE svg PUBLIC "-//W3C//DTD SVG 1.1//EN" "http://www.w3.org/Graphics/SVG/1.1/DTD/svg11.dtd">
<svg version="1.1" id="Layer_1" xmlns="http://www.w3.org/2000/svg" xmlns:xlink="http://www.w3.org/1999/xlink" x="0px" y="0px"
	 width="103px" height="84.301px" viewBox="204.5 167.375 103 84.301" enable-background="new 204.5 167.375 103 84.301"
	 xml:space="preserve">
<path fill="#FFFFFF" d="M306.516,186.527l-32.571-12.418c-0.79-0.301-1.674,0.095-1.975,0.884c-0.301,0.79,0.095,1.674,0.885,1.975
	l28.821,10.988l-19.952,7.607l-25.093-11.361c-0.77-0.349-1.676-0.007-2.024,0.762c-0.349,0.77-0.007,1.676,0.762,2.025
	l22.327,10.109L256,205.371l-45.676-17.415L256,170.542l11.256,4.292c0.788,0.3,1.674-0.095,1.976-0.885
	c0.301-0.789-0.096-1.673-0.886-1.974l-11.801-4.5c-0.351-0.134-0.739-0.134-1.09,0l-49.97,19.052
	c-0.593,0.226-0.985,0.795-0.985,1.429v6.986c0,0.634,0.392,1.203,0.985,1.43l15.604,5.949v5.301c0,0.845,0.685,1.53,1.529,1.53
	c0.845,0,1.53-0.685,1.53-1.53v-4.134l31.307,11.936c0.176,0.066,0.361,0.101,0.545,0.101s0.369-0.034,0.545-0.101l23.599-8.997
	v24.209c-7.408,3.889-15.717,5.973-24.144,5.973c-11.501,0-22.783-3.877-31.852-10.933v-11.935c0-0.845-0.685-1.53-1.53-1.53
	c-0.845,0-1.529,0.686-1.529,1.53v12.676c0,0.464,0.21,0.904,0.573,1.193c9.706,7.776,21.901,12.058,34.338,12.058
	c8.388,0,16.664-1.951,24.144-5.604v6.191c-2.465,0.674-4.282,2.931-4.282,5.607c0,3.205,2.607,5.813,5.812,5.813
	c3.205,0,5.812-2.608,5.812-5.813c0-2.676-1.817-4.933-4.282-5.607v-7.807c2.493-1.418,4.882-3.032,7.136-4.838
	c0.362-0.29,0.574-0.729,0.574-1.193V202.32l15.603-5.949c0.592-0.226,0.984-0.794,0.984-1.429v-6.985
	C307.5,187.322,307.107,186.753,306.516,186.527z M284.427,245.863c0,1.518-1.235,2.753-2.754,2.753
	c-1.518,0-2.753-1.235-2.753-2.753c0-1.518,1.235-2.753,2.753-2.753C283.191,243.11,284.427,244.345,284.427,245.863z
	 M207.559,190.177l46.911,17.886v3.71l-46.911-17.885V190.177z M257.53,211.773v-3.71l22.613-8.623v3.712L257.53,211.773z
	 M287.853,225.675c-1.492,1.162-3.046,2.235-4.649,3.221V205.26l4.649-1.773V225.675z M283.203,201.985v-3.711l21.237-8.097v3.711
	L283.203,201.985z"/>
</svg>
